<svg width="3" height="20" viewBox="0 0 3 20" fill="none" xmlns="http://www.w3.org/2000/svg">
<g opacity="0.2">
<path d="M0 1.03906C0 0.747396 0.0989583 0.502604 0.296875 0.304688C0.494792 0.101562 0.763021 0 1.10156 0C1.44531 0 1.71354 0.101562 1.90625 0.304688C2.10417 0.502604 2.20312 0.747396 2.20312 1.03906C2.20312 1.33073 2.10417 1.57552 1.90625 1.77344C1.71354 1.97135 1.44531 2.07031 1.10156 2.07031C0.763021 2.07031 0.494792 1.97135 0.296875 1.77344C0.0989583 1.57552 0 1.33073 0 1.03906Z" fill="#848484"/>
<path d="M0 5.52148C0 5.22982 0.0989583 4.98503 0.296875 4.78711C0.494792 4.58398 0.763021 4.48242 1.10156 4.48242C1.44531 4.48242 1.71354 4.58398 1.90625 4.78711C2.10417 4.98503 2.20312 5.22982 2.20312 5.52148C2.20312 5.81315 2.10417 6.05794 1.90625 6.25586C1.71354 6.45378 1.44531 6.55273 1.10156 6.55273C0.763021 6.55273 0.494792 6.45378 0.296875 6.25586C0.0989583 6.05794 0 5.81315 0 5.52148Z" fill="#848484"/>
<path d="M0.296875 9.26953C0.0989583 9.46745 0 9.71224 0 10.0039C0 10.2956 0.0989583 10.5404 0.296875 10.7383C0.494792 10.9362 0.763021 11.0352 1.10156 11.0352C1.44531 11.0352 1.71354 10.9362 1.90625 10.7383C2.10417 10.5404 2.20312 10.2956 2.20312 10.0039C2.20312 9.71224 2.10417 9.46745 1.90625 9.26953C1.71354 9.06641 1.44531 8.96484 1.10156 8.96484C0.763021 8.96484 0.494792 9.06641 0.296875 9.26953Z" fill="#848484"/>
<path d="M0 14.4863C0 14.1947 0.0989583 13.9499 0.296875 13.752C0.494792 13.5488 0.763021 13.4473 1.10156 13.4473C1.44531 13.4473 1.71354 13.5488 1.90625 13.752C2.10417 13.9499 2.20312 14.1947 2.20312 14.4863C2.20312 14.778 2.10417 15.0228 1.90625 15.2207C1.71354 15.4186 1.44531 15.5176 1.10156 15.5176C0.763021 15.5176 0.494792 15.4186 0.296875 15.2207C0.0989583 15.0228 0 14.778 0 14.4863Z" fill="#848484"/>
<path d="M0.296875 18.2344C0.0989583 18.4323 0 18.6771 0 18.9688C0 19.2604 0.0989583 19.5052 0.296875 19.7031C0.494792 19.901 0.763021 20 1.10156 20C1.44531 20 1.71354 19.901 1.90625 19.7031C2.10417 19.5052 2.20312 19.2604 2.20312 18.9688C2.20312 18.6771 2.10417 18.4323 1.90625 18.2344C1.71354 18.0312 1.44531 17.9297 1.10156 17.9297C0.763021 17.9297 0.494792 18.0312 0.296875 18.2344Z" fill="#848484"/>
</g>
</svg>
